<svg id="wave" style="transform:rotate(180deg); transition: 0.3s" viewBox="0 0 1440 240" version="1.1" xmlns="http://www.w3.org/2000/svg"><defs><linearGradient id="sw-gradient-0" x1="0" x2="0" y1="1" y2="0"><stop stop-color="rgba(249, 237, 229, 1)" offset="0%"></stop><stop stop-color="rgba(249, 237, 229, 1)" offset="100%"></stop></linearGradient></defs><path style="transform:translate(0, 0px); opacity:1" fill="url(#sw-gradient-0)" d="M0,24L80,52C160,80,320,136,480,140C640,144,800,96,960,96C1120,96,1280,144,1440,160C1600,176,1760,160,1920,128C2080,96,2240,48,2400,52C2560,56,2720,112,2880,112C3040,112,3200,56,3360,56C3520,56,3680,112,3840,140C4000,168,4160,168,4320,144C4480,120,4640,72,4800,56C4960,40,5120,56,5280,72C5440,88,5600,104,5760,96C5920,88,6080,56,6240,68C6400,80,6560,136,6720,140C6880,144,7040,96,7200,88C7360,80,7520,112,7680,112C7840,112,8000,80,8160,88C8320,96,8480,144,8640,164C8800,184,8960,176,9120,180C9280,184,9440,200,9600,180C9760,160,9920,104,10080,104C10240,104,10400,160,10560,176C10720,192,10880,168,11040,160C11200,152,11360,160,11440,164L11520,168L11520,240L11440,240C11360,240,11200,240,11040,240C10880,240,10720,240,10560,240C10400,240,10240,240,10080,240C9920,240,9760,240,9600,240C9440,240,9280,240,9120,240C8960,240,8800,240,8640,240C8480,240,8320,240,8160,240C8000,240,7840,240,7680,240C7520,240,7360,240,7200,240C7040,240,6880,240,6720,240C6560,240,6400,240,6240,240C6080,240,5920,240,5760,240C5600,240,5440,240,5280,240C5120,240,4960,240,4800,240C4640,240,4480,240,4320,240C4160,240,4000,240,3840,240C3680,240,3520,240,3360,240C3200,240,3040,240,2880,240C2720,240,2560,240,2400,240C2240,240,2080,240,1920,240C1760,240,1600,240,1440,240C1280,240,1120,240,960,240C800,240,640,240,480,240C320,240,160,240,80,240L0,240Z"></path></svg>